<?xml version="1.0" encoding="utf-8"?>
<!-- Generator: Adobe Illustrator 21.1.0, SVG Export Plug-In . SVG Version: 6.00 Build 0)  -->
<svg version="1.1" id="Layer_1" xmlns="http://www.w3.org/2000/svg" xmlns:xlink="http://www.w3.org/1999/xlink" x="0px" y="0px"
	 viewBox="0 0 60.6 60.6" style="enable-background:new 0 0 60.6 60.6;" xml:space="preserve">
<g>
	<g>
		<path d="M30.5,20H30v-3.3h0.5V20z"/>
		<path d="M26.6,26.9h-0.4l-0.8-2.2v2.2H25v-3.3h0.5l0.7,1.9v-1.9h0.5v3.3H26.6z"/>
		<path d="M35.6,26.4c0,0.3-0.2,0.5-0.5,0.5h-1.2v-3.3h1.2c0.3,0,0.5,0.2,0.5,0.5V26.4z M35.1,26.4V24h-0.7v2.4H35.1z"/>
		<path d="M22.7,33.7h-1.4v-3.3h1.4v0.5h-0.9v0.9h0.7v0.5h-0.7v1h0.9V33.7z"/>
		<path d="M31.3,32.3c0.2,0.2,0.2,0.3,0.2,0.5v0.5c0,0.3-0.2,0.5-0.5,0.5h-0.7c-0.3,0-0.5-0.2-0.5-0.5v-0.5h0.5v0.5H31v-0.5l-1-1
			c-0.2-0.2-0.2-0.3-0.2-0.5v-0.4c0-0.3,0.2-0.5,0.5-0.5H31c0.3,0,0.5,0.2,0.5,0.5v0.5H31v-0.5h-0.7v0.4L31.3,32.3z"/>
		<path d="M39.3,33.7h-0.5v-3.3h0.5V33.7z"/>
		<path d="M17.3,40.1c0,0.3-0.2,0.5-0.5,0.5h-0.7c-0.3,0-0.5-0.2-0.5-0.5v-2.4c0-0.3,0.2-0.5,0.5-0.5h0.7c0.3,0,0.5,0.2,0.5,0.5v0.5
			h-0.5v-0.5h-0.7v2.4h0.7v-0.8h-0.4v-0.5h0.8v1.3H17.3z"/>
		<path d="M26.2,40.6h-0.4L25,38.4v2.2h-0.5v-3.3H25l0.7,1.9v-1.9h0.5V40.6z"/>
		<path d="M36.4,37.3l-0.6,3.3h-0.6l-0.4-2.2l-0.4,2.2H34l-0.6-3.3h0.5l0.4,2.5l0.4-2.5h0.4l0.4,2.5l0.4-2.5H36.4z"/>
		<path d="M45,40.6h-1.4v-3.3H45v0.5h-0.9v0.9h0.7v0.5h-0.7v1H45V40.6z"/>
		<path d="M13.3,44.6h-0.6v2.8h-0.5v-2.8h-0.6v-0.5h1.7C13.3,44.1,13.3,44.6,13.3,44.6z"/>
		<path d="M22.2,47.4h-0.5l-0.3-1.3H21v1.3h-0.5v-3.3h1.2c0.3,0,0.5,0.2,0.5,0.5v1c0,0.3-0.1,0.4-0.4,0.4L22.2,47.4z M21.7,45.7v-1
			H21v1H21.7z"/>
		<path d="M31.1,47c0,0.3-0.2,0.5-0.5,0.5h-0.7c-0.3,0-0.5-0.2-0.5-0.5v-2.8h0.5V47h0.7v-2.8h0.5V47z"/>
		<path d="M39.8,46c0.2,0.1,0.2,0.3,0.2,0.5V47c0,0.3-0.2,0.5-0.5,0.5h-0.7c-0.3,0-0.5-0.2-0.5-0.5v-0.5h0.5V47h0.7v-0.5l-1-1
			c-0.2-0.2-0.2-0.3-0.2-0.5v-0.4c0-0.3,0.2-0.5,0.5-0.5h0.7c0.3,0,0.5,0.2,0.5,0.5v0.5h-0.5v-0.5h-0.7V45L39.8,46z"/>
		<path d="M48.9,44.6h-0.6v2.8h-0.5v-2.8h-0.6v-0.5h1.7C48.9,44.1,48.9,44.6,48.9,44.6z"/>
	</g>
	<g>
		<path d="M60.6,52.3H0l30.3-44L60.6,52.3z M1.9,51.3h56.8L30.3,10.1L1.9,51.3z"/>
	</g>
</g>
</svg>
