<?xml version="1.0" encoding="utf-8"?>
<!-- Generator: Adobe Illustrator 21.1.0, SVG Export Plug-In . SVG Version: 6.00 Build 0)  -->
<svg version="1.1" id="Layer_1" xmlns="http://www.w3.org/2000/svg" xmlns:xlink="http://www.w3.org/1999/xlink" x="0px" y="0px"
	 viewBox="0 0 44.5 44.5" style="enable-background:new 0 0 44.5 44.5;" xml:space="preserve">
<g>
	<g>
		<path d="M17.9,0.1v0.2h-0.3v0.5h-0.2V0.3h-0.3V0.1H17.9z"/>
		<path d="M18.5,0.8h-0.2V0.1h0.5c0.2,0,0.3,0.1,0.3,0.2S19,0.5,19,0.5l0.2,0.2h-0.3l-0.2-0.2h-0.1V0.8z M18.5,0.4h0.2
			c0.1,0,0.1,0,0.1-0.1c0,0,0-0.1-0.1-0.1h-0.2V0.4z"/>
		<path d="M20,0.7h-0.4l-0.1,0.1h-0.2l0.4-0.7H20l0.4,0.7H20V0.7z M19.8,0.6H20l-0.1-0.2l0,0L19.8,0.6z"/>
		<path d="M21,0.1c0.3,0,0.5,0.1,0.5,0.4c0,0.2-0.2,0.4-0.5,0.4h-0.4V0.1H21z M20.9,0.6H21c0.1,0,0.2-0.1,0.2-0.2S21.1,0.2,21,0.2
			h-0.1V0.6z"/>
		<path d="M22.6,0.1v0.2h-0.5v0.1h0.4v0.2h-0.4v0.1h0.5v0.2h-0.7V0.1H22.6z"/>
		<path d="M23.3,0.1l0.2,0.4l0,0l0.2-0.4H24v0.7h-0.2V0.3l0,0l-0.2,0.5h-0.2l-0.2-0.5l0,0v0.5H23V0.1H23.3z"/>
		<path d="M25,0.7h-0.4l-0.1,0.1h-0.2l0.4-0.7H25l0.4,0.7h-0.3L25,0.7z M24.8,0.6H25l-0.1-0.2l0,0L24.8,0.6z"/>
		<path d="M25.9,0.8h-0.2V0.1h0.5c0.2,0,0.3,0.1,0.3,0.2s-0.1,0.2-0.2,0.2l0.2,0.2h-0.3L26,0.6h-0.1V0.8z M25.9,0.4h0.2
			c0.1,0,0.1,0,0.1-0.1c0,0,0-0.1-0.1-0.1h-0.2V0.4z"/>
		<path d="M27.2,0.6l-0.1,0.1v0.1h-0.2V0.1h0.2v0.3l0.3-0.3h0.3l-0.3,0.3l0.3,0.4h-0.3L27.2,0.6z"/>
	</g>
	<g>
		<path d="M13.7,43.7V44H14v-0.3h0.2v0.7H14v-0.3h-0.3v0.3h-0.2v-0.7H13.7z"/>
		<path d="M15.2,43.7c0.2,0,0.3,0.1,0.3,0.2c0,0.1-0.1,0.1-0.2,0.2l0,0c0.1,0,0.2,0.1,0.2,0.2c0,0.1-0.1,0.2-0.3,0.2h-0.5v-0.7h0.5
			V43.7z M15,44h0.2c0.1,0,0.1,0,0.1-0.1c0,0,0-0.1-0.1-0.1H15V44z M15,44.3h0.2c0.1,0,0.1,0,0.1-0.1c0,0,0-0.1-0.1-0.1H15V44.3z"/>
		<path d="M16.2,44.5c-0.2,0-0.4-0.1-0.4-0.4c0-0.2,0.2-0.4,0.5-0.4c0.1,0,0.3,0,0.4,0.1L16.6,44c-0.1,0-0.2-0.1-0.3-0.1
			c-0.1,0-0.2,0.1-0.2,0.2c0,0.1,0.1,0.2,0.2,0.2c0.1,0,0.2,0,0.2-0.1h-0.2v-0.1h0.4v0.4h-0.1v-0.1C16.5,44.4,16.4,44.5,16.2,44.5z"
			/>
	</g>
	<g>
		<path d="M29.3,43.7v0.4c0,0.1,0.1,0.2,0.2,0.2s0.2-0.1,0.2-0.2v-0.4H30v0.4c0,0.2-0.1,0.4-0.4,0.4s-0.4-0.1-0.4-0.4v-0.4H29.3z"/>
		<path d="M31.1,43.8L31,44c-0.1,0-0.2-0.1-0.3-0.1c-0.1,0-0.1,0-0.1,0s0,0,0.2,0.1c0.3,0,0.4,0.1,0.4,0.2c0,0.2-0.2,0.2-0.4,0.2
			c-0.2,0-0.3,0-0.4-0.1l0.1-0.2c0.1,0.1,0.3,0.1,0.4,0.1s0.2,0,0.2,0s0,0-0.2-0.1c-0.2,0-0.4-0.1-0.4-0.2c0-0.1,0.2-0.2,0.4-0.2
			C30.8,43.7,31,43.8,31.1,43.8z"/>
		<path d="M32,44.4h-0.4l-0.1,0.1h-0.2l0.4-0.7H32l0.4,0.7h-0.3L32,44.4z M31.8,44.2H32L31.8,44l0,0L31.8,44.2z"/>
	</g>
	<g>
		<path d="M16.2,4.2L16.2,4.2c-1.6,0-2.9,1.3-2.9,2.8v2.5h-1.2c0,0-0.1,0-0.1,0.1v1.9c0,0,0,0.1,0.1,0.1h1.2v4
			c0,0.8,0.2,1.6,0.7,2.3l2.3,3.7c0.4,0.7,0.7,1.5,0.7,2.3v13.3c0,0.4-0.3,0.8-0.7,0.8c-0.5,0-0.8-0.3-0.8-0.8V23.1
			c0,0,0-0.1-0.1-0.1h-1.9c0,0-0.1,0-0.1,0.1v14.1c0,1.5,1.2,2.8,2.7,2.9c1.6,0.1,2.9-1.2,2.9-2.8v-14c0-0.8-0.2-1.7-0.7-2.4
			L16,17.4c-0.4-0.7-0.7-1.5-0.7-2.4V7c0-0.4,0.3-0.8,0.8-0.8h0.1C16.6,6.2,17,6.5,17,7v2.5h-0.7c0,0-0.1,0-0.1,0.1v1.9
			c0,0,0,0.1,0.1,0.1H17V15c0,0,0,0.1,0.1,0.1h1.9c0,0,0.1,0,0.1-0.1v-3.4V9.5V7C19,5.5,17.8,4.2,16.2,4.2z"/>
		<path d="M20.2,11.6h1.2v23c0,0,0,0.1,0.1,0.1h1.9c0,0,0.1,0,0.1-0.1v-23h1.3c0,0,0.1,0,0.1-0.1V9.6c0,0,0-0.1-0.1-0.1h-4.6
			c0,0-0.1,0-0.1,0.1L20.2,11.6L20.2,11.6z"/>
		<path d="M32.4,7.4c0-1.8-1.5-3.2-3.3-3.2c-1.7,0.1-3,1.5-3,3.2v2.1v2.1v25.3c0,1.7,1.3,3.2,3,3.2c1.8,0.1,3.3-1.4,3.3-3.2V23.1
			c0,0,0-0.1-0.1-0.1h-1.9c0,0-0.1,0-0.1,0.1V37c0,0.6-0.4,1.1-1,1.1C28.6,38.2,28,37.7,28,37V11.6h0.7c0,0,0.1,0,0.1-0.1V9.6
			c0,0,0-0.1-0.1-0.1H28V7.4c0-0.6,0.4-1.1,1-1.1c0.7-0.1,1.3,0.4,1.3,1.1v7.7c0,0,0,0.1,0.1,0.1h1.9c0,0,0.1,0,0.1-0.1v-3.5h1.2
			c0,0,0.1,0,0.1-0.1V9.6c0,0,0-0.1-0.1-0.1h-1.2V7.4z"/>
		<path d="M38.2,0C36.5,0,35,1.4,35,3.2v38.1c0,1.7,1.4,3.2,3.2,3.2c1.7,0,3.2-1.4,3.2-3.2V3.2C41.5,1.4,40,0,38.2,0z M39.3,41.3
			c0,0.6-0.5,1.1-1.1,1.1s-1.1-0.5-1.1-1.1V3.2c0-0.6,0.5-1.1,1.1-1.1s1.1,0.5,1.1,1.1V41.3z"/>
		<path d="M6.8,30.3L5.1,0.1L5,0H3.1C3,0,3,0.1,3,0.1v44.2c0,0.1,0,0.1,0.1,0.1h1.8c0.1,0,0.1,0,0.1-0.1V34c0-0.1,0.1-0.1,0.1,0
			l0.8,10.4c0,0.1,0.1,0.1,0.1,0.1h1.5c0.1,0,0.1,0,0.1-0.1l0.8-11c0-0.1,0.1-0.1,0.1,0v10.9c0,0.1,0,0.1,0.1,0.1h1.8
			c0.1,0,0.1,0,0.1-0.1V0.1c0,0,0-0.1-0.1-0.1H8.6c0,0-0.1,0-0.1,0.1L6.8,30.3L6.8,30.3z"/>
	</g>
	<path d="M19.6,44.5v-1.4h0.5c0.3,0,0.5,0.1,0.5,0.4c0,0.3-0.2,0.4-0.5,0.4h-0.2v0.6H19.6z M19.8,43.7H20c0.2,0,0.3-0.1,0.3-0.2
		c0-0.1-0.1-0.2-0.3-0.2h-0.2V43.7z"/>
	<path d="M21,44.5v-1.4h0.9v0.2h-0.7v0.3h0.5v0.2h-0.5v0.4h0.7v0.2L21,44.5L21,44.5z"/>
	<path d="M22.3,44.5v-1.4h0.3l0.5,1l0,0v-1h0.3v1.4h-0.3l-0.6-1l0,0v1H22.3z"/>
	<path d="M23.9,44.5v-1.4h0.3l0.5,1l0,0v-1H25v1.4h-0.3l-0.6-1l0,0v1H23.9z"/>
	<path d="M25.8,43.1h0.3l0.4,1.4h-0.3l-0.1-0.3h-0.4l-0.1,0.3h-0.3L25.8,43.1z M25.8,43.9h0.3L26,43.3l0,0L25.8,43.9z"/>
</g>
</svg>
