<?xml version="1.0" encoding="utf-8"?>
<!-- Generator: Adobe Illustrator 21.1.0, SVG Export Plug-In . SVG Version: 6.00 Build 0)  -->
<svg version="1.1" id="Layer_1" xmlns="http://www.w3.org/2000/svg" xmlns:xlink="http://www.w3.org/1999/xlink" x="0px" y="0px"
	 viewBox="0 0 65 65" style="enable-background:new 0 0 65 65;" xml:space="preserve">
<path d="M45.4,12.9h-7.2H26.9h-7.2C8.8,12.9,0,21.7,0,32.5s8.8,19.6,19.6,19.6h7.2h11.3h7.2c10.8,0,19.6-8.8,19.6-19.6
	C65,21.7,56.2,12.9,45.4,12.9z M53.7,44.5c1.1-1.5,2.1-3.2,2.8-4.9h5.8c-0.8,1.8-1.8,3.5-3,4.9H53.7z M5.8,44.5
	c-1.3-1.5-2.3-3.1-3-4.9h5.8c0.7,1.8,1.6,3.5,2.8,4.9H5.8z M11.3,20.5c-1.1,1.5-2.1,3.2-2.8,4.9H2.7c0.8-1.8,1.8-3.5,3-4.9
	C5.7,20.6,11.3,20.6,11.3,20.5z M59.2,20.5c1.3,1.5,2.3,3.1,3,4.9h-5.8c-0.7-1.8-1.6-3.5-2.8-4.9C53.6,20.6,59.2,20.6,59.2,20.5z
	 M55,25.5h-6.2c-0.6-1.8-1.4-3.4-2.4-4.9H52C53.2,22,54.3,23.7,55,25.5z M48.4,31.5v0.4h-6.3v-0.4c0-1.5-0.1-3-0.3-4.5h6
	C48.2,28.4,48.4,29.9,48.4,31.5z M24.6,26.9H32v5h-7.7v-0.4C24.2,29.9,24.4,28.4,24.6,26.9z M33.3,19.2v-4.9
	c1.9,0.4,3.6,2.2,4.9,4.9H33.3z M38.8,20.5c0.6,1.5,1.1,3.2,1.4,4.9h-6.9v-4.9H38.8z M31.9,20.5v4.9h-7.2c0.3-1.8,0.8-3.5,1.4-4.9
	C26.1,20.6,31.9,20.6,31.9,20.5z M26.8,19.2c1.4-2.8,3.2-4.6,5.2-4.9v4.9H26.8z M31.9,33.2V38h-7.2c-0.3-1.6-0.4-3.3-0.5-4.9H31.9z
	 M33.3,33.2h7.5c0,1.7-0.2,3.3-0.5,4.9h-7V33.2z M33.3,31.9v-5h7.2c0.2,1.5,0.3,3,0.3,4.5v0.5H33.3z M41.6,25.5
	c-0.3-1.7-0.8-3.4-1.3-4.9h4.6c1.1,1.5,2,3.1,2.6,4.9H41.6z M39.7,19.2C39,17.5,38,16,36.9,14.9c2.6,0.8,4.9,2.3,6.8,4.3H39.7z
	 M25.4,18.9c-0.1,0.1-0.1,0.2-0.2,0.4h-4c1.9-2,4.2-3.5,6.8-4.3C27.1,15.9,26.2,17.2,25.4,18.9z M24.7,20.5c-0.6,1.5-1,3.2-1.3,4.9
	h-5.9c0.6-1.8,1.5-3.5,2.6-4.9C20.1,20.6,24.7,20.6,24.7,20.5z M23.2,26.9c-0.2,1.5-0.3,3-0.3,4.5v0.5h-6.3v-0.3
	c0-1.6,0.2-3.2,0.6-4.6h6V26.9z M15.2,31.5v0.4H8.6c0.1-1.8,0.4-3.4,0.9-5h6.3C15.4,28.4,15.2,29.9,15.2,31.5z M15.2,33.2v0.3
	c0,1.6,0.2,3.1,0.5,4.6H9.5c-0.5-1.5-0.8-3.2-0.9-4.9H15.2z M16.6,33.5v-0.3h6.3c0,1.6,0.2,3.3,0.5,4.9h-6.2
	C16.8,36.7,16.6,35.1,16.6,33.5z M23.6,39.5c0.4,1.7,0.8,3.4,1.4,4.9h-4.9c-1.1-1.5-2-3.1-2.6-4.9H23.6z M25,39.5h7v4.9h-5.5
	C25.9,43,25.4,41.2,25,39.5z M31.9,45.8v4.9c-1.9-0.3-3.6-2.2-4.9-4.9H31.9z M33.3,45.8H38c-1.3,2.6-2.9,4.5-4.7,4.9V45.8z
	 M33.3,44.5v-4.9H40c-0.4,1.8-0.9,3.5-1.5,4.9H33.3z M41.4,39.5h6.1c-0.6,1.8-1.5,3.5-2.6,4.9H40C40.6,42.8,41,41.2,41.4,39.5z
	 M41.6,38.2c0.3-1.6,0.4-3.3,0.5-4.9h6.3v0.3c0,1.6-0.2,3.2-0.6,4.6H41.6z M49.8,33.5v-0.3h6.6c-0.1,1.7-0.4,3.4-0.9,4.9h-6.3
	C49.6,36.7,49.8,35.1,49.8,33.5z M49.8,31.9v-0.3c0-1.6-0.2-3.1-0.5-4.6h6.3c0.5,1.6,0.8,3.2,0.9,4.9H49.8z M45.5,19.2
	c-1.8-2.2-4-3.9-6.5-5c4.5,0.2,8.6,2.1,11.7,5H45.5z M19.5,19.2h-5.2c3.1-2.9,7.2-4.8,11.7-5C23.5,15.4,21.3,17,19.5,19.2z
	 M18.5,20.5c-1,1.5-1.8,3.2-2.4,4.9H10c0.8-1.8,1.8-3.5,3-4.9C13,20.6,18.5,20.6,18.5,20.5z M8.1,26.9c-0.5,1.6-0.7,3.2-0.8,4.9H1.4
	c0.1-1.7,0.4-3.4,0.9-4.9H8.1z M7.3,33.2c0.1,1.7,0.3,3.4,0.8,4.9H2.2c-0.5-1.6-0.8-3.2-0.9-4.9H7.3z M10,39.5h6.2
	c0.6,1.8,1.4,3.4,2.4,4.9H13C11.8,43,10.7,41.2,10,39.5z M19.5,45.8c1.8,2.2,4,3.9,6.5,5c-4.5-0.2-8.6-2.1-11.7-5H19.5z M21.3,45.8
	h4.3c0.8,1.8,1.8,3.3,2.9,4.4C25.7,49.4,23.3,47.8,21.3,45.8z M39.4,45.8h4.3c-2,2.1-4.4,3.7-7.2,4.4C37.6,49.1,38.6,47.6,39.4,45.8
	z M45.5,45.8h5.2c-3.1,2.9-7.2,4.8-11.7,5C41.5,49.7,43.7,47.9,45.5,45.8z M46.5,44.5c1-1.5,1.8-3.2,2.4-4.9H55
	c-0.8,1.8-1.8,3.5-3,4.9H46.5z M56.9,38.2c0.5-1.6,0.7-3.2,0.8-4.9h5.9c-0.1,1.7-0.4,3.4-0.9,4.9H56.9z M57.8,31.9
	c-0.1-1.7-0.3-3.4-0.8-4.9h5.8c0.5,1.6,0.8,3.2,0.9,4.9H57.8z M45.4,14.2c4.9,0,9.3,1.9,12.5,5h-5.3C50.6,17,48.1,15.4,45.4,14.2
	L45.4,14.2z M19.7,14.2c-2.8,1.1-5.3,2.8-7.3,5H7.1C10.4,16.1,14.8,14.2,19.7,14.2L19.7,14.2z M19.6,50.8c-4.9,0-9.3-1.9-12.5-5h5.3
	C14.4,47.9,16.9,49.7,19.6,50.8L19.6,50.8z M45.3,50.8c2.8-1.1,5.3-2.8,7.3-5h5.3C54.7,48.8,50.2,50.8,45.3,50.8L45.3,50.8z"/>
</svg>
