<?xml version="1.0" encoding="utf-8"?>
<!-- Generator: Adobe Illustrator 21.1.0, SVG Export Plug-In . SVG Version: 6.00 Build 0)  -->
<svg version="1.1" id="Layer_1" xmlns="http://www.w3.org/2000/svg" xmlns:xlink="http://www.w3.org/1999/xlink" x="0px" y="0px"
	 viewBox="0 0 70.5 28.1" style="enable-background:new 0 0 70.5 28.1;" xml:space="preserve">
<style type="text/css">
	.st0{fill:#F8F7F2;}
</style>
<g>
	<path class="st0" d="M23.2,6.3c0.1-0.1,0.3-0.2,0.4-0.2s0.2,0,0.2,0.1s-0.1,0.3-0.2,0.4c-0.5,0.7-1.9,3-3.7,3.3
		c-1.5,0.2-2.7,0-3.8-0.4c-0.2-0.1-0.4,0-0.5,0.1c-2.6,3.8-1.3,10.3-3.8,14.6c-1.5,2.6-4,3.8-6,3.9c-2.4,0.1-3.2-1.1-3.2-1.7
		c0-0.3,0.2-0.5,0.5-0.5s0.4,0.2,0.4,0.4c0,0.3,0.4,1.1,1.6,1.1c1.4,0,2.5-1.3,3.6-3.8c1.8-3.9,2.6-10.5,5.7-14
		c0.2-0.2,0.1-0.6-0.2-0.7C13,8.4,11.6,8,9.8,8.1C6.3,8.4,2.1,11.5,2.1,16c0,2,0.8,3.7,2.9,3.7c1.5,0,2.6-1.2,2.6-2.4
		c0-0.7-0.6-0.7-0.6-1.4c0-0.5,0.3-1,0.9-1s1,0.4,1,1.2c0,2.1-1.9,4.1-4.2,4.1C2.3,20.4,0,18.6,0,15.9c0-5.2,5.2-8,10-8.3
		c4.6-0.3,5.7,0.6,10.2,0C21.6,7.4,22.3,7,23.2,6.3z"/>
	<path class="st0" d="M18.6,20.3c-0.6,0.9-1.5,4-1.5,4.4c0,0.3-0.1,0.4-0.4,0.5c-0.3,0-0.9,0-1.4,0.1c-0.6,0.1-1,0.3-1.1,0.4
		c-0.1,0-0.1,0-0.1-0.1s0.3-0.4,0.5-0.8c0.7-1.4,1.6-4.6,1.6-5.2c0-0.1,0-0.3-0.2-0.3c-0.3,0-1.1,0.9-1.1,0.9
		c-0.1-0.1-0.1-0.2-0.2-0.2c0.4-0.5,1.9-1.9,2.8-2c0.8-0.1,1.3,0.3,1.3,0.8c0,0.4-0.1,0.8-0.1,0.9c0.6-1,1.7-2.1,2.4-2.2
		c0.7-0.1,1.1,0.3,1.1,0.8c0,0.6-0.4,1.4-1.2,1.5c-0.5,0.1-0.8-0.3-0.8-0.7c0-0.2-0.1-0.3-0.2-0.2C19.6,18.8,19.3,19.1,18.6,20.3z"
		/>
	<path class="st0" d="M26.7,22.3c0-0.6,0.1-1,0.1-1c-1.1,1.4-2.4,2.6-3.6,2.8c-0.9,0.1-1.7-0.2-1.7-1.2c0-1.3,1.6-3.3,1.6-4.5
		c0-0.2-0.1-0.3-0.3-0.3c-0.3,0-1.1,0.9-1.1,0.9c-0.1-0.1-0.1-0.2-0.2-0.2c0.5-0.5,1.9-2,2.9-2.1c0.8-0.1,1.3,0.2,1.3,0.8
		c0,1.2-1.5,3.5-1.5,4.8c0,0.3,0.2,0.4,0.4,0.4c0.4-0.1,1-0.5,2.1-2c0.5-0.7,0.7-2.2,1.1-3c0.4-0.9,1.2-1.5,2-1.8
		c1.2-0.4,1.5-0.8,1.5-0.8c0.1,0.1,0.1,0.2,0.2,0.3c0,0-0.7,0.5-1.2,1.5c-0.6,1.2-1.2,3.6-1.2,4.6c0,0.2,0.1,0.3,0.2,0.3
		c0.6-0.1,1.4-1.1,1.4-1.1c0.1,0.1,0.1,0.1,0.2,0.2c0,0-1.5,2.1-2.9,2.3C27.5,23.4,26.7,23.1,26.7,22.3z"/>
	<path class="st0" d="M30.7,21c0-0.7,0.7-1.3,1.4-1.4c0.5-0.1,0.9,0.2,0.9,0.7c0,0.6-0.5,0.8-0.5,1.3c0,0.3,0.3,0.6,0.8,0.5
		c0.9-0.1,1.2-0.8,1.2-1.5c0-1.5-2.5-1.3-2.5-2.9c0-1.4,2.1-2.4,3.5-2.7c1.3-0.2,2.2,0.3,2.2,1.1c0,0.7-0.5,1.3-1.2,1.4
		c-0.6,0.1-1-0.2-1-0.6c0-0.5,0.4-0.7,0.4-1.1c0-0.3-0.2-0.4-0.5-0.4c-0.6,0.1-1.1,0.6-1.1,1.2c0,1.7,2.7,1.6,2.7,3.1
		c0,1.4-1.8,2.6-3.6,2.9C31.9,22.6,30.7,22.1,30.7,21z"/>
	<path class="st0" d="M39.3,13.1C39.3,13.1,39.4,13.1,39.3,13.1c0.3,0,0.4-0.2,0.4-0.3c0.4-1.4,1.3-2,2.3-2.5
		c1.3-0.5,1.6-0.8,1.6-0.8c0.1,0.1,0.1,0.2,0.2,0.3c0,0-0.7,0.5-1.2,1.5c-0.1,0.2-0.2,0.4-0.3,0.6c-0.1,0.3,0.1,0.7,0.5,0.6
		c0.4-0.1,0.9-0.1,1.3-0.2c-0.1,0.1-0.1,0.2-0.2,0.4c-0.1,0.1-0.2,0.2-0.3,0.2c-0.5,0.1-1,0.2-1.5,0.2c-0.2,0-0.3,0.1-0.3,0.3
		c-0.5,2-1.2,4.3-1.2,5.3c0,0.7,0.2,1,0.7,0.9c0.8-0.1,1.6-1.2,1.6-1.2c0.1,0.1,0.1,0.1,0.2,0.2c0,0-1.6,2.1-3.1,2.4
		c-1.1,0.2-2-0.4-2-1.4c0-1.1,0.6-3,1.3-5.4c0.1-0.3-0.2-0.6-0.5-0.6l0,0c0.1-0.1,0.1-0.2,0.2-0.4C39.1,13.2,39.2,13.1,39.3,13.1z"
		/>
	<path class="st0" d="M63.4,14.5c-1.3,2-4.2,5.6-7.9,6.1c-3.2,0.4-5.9-0.8-5.9-4.8c0-8.4,8-15.5,12.5-15.8c2-0.2,3.2,0.7,3.2,2.5
		c0,1.4-0.6,2.6-1.5,2.7c-0.5,0-0.9-0.3-0.9-0.8c0-1.2,1.4-1.3,1.4-2.5c0-0.9-0.7-1.3-1.9-1.2c-3.7,0.3-9.1,7.1-9.1,14.6
		c0,3,1.3,4.2,3.5,3.9c2.7-0.3,5.2-3.2,6.3-4.9C63.2,14.3,63.3,14.4,63.4,14.5z"/>
	<path class="st0" d="M70.5,13.9c0,2.6-2.4,4.7-4.7,4.8c-1.8,0.1-3.2-0.7-3.2-2.4c0-2.5,2.1-4.9,4.6-4.9
		C69.2,11.3,70.5,12.3,70.5,13.9z M65,16.8c0,0.9,0.3,1.4,0.9,1.4c1.2,0,2.4-2.7,2.4-5.1c0-0.9-0.3-1.3-0.9-1.3
		C66.1,11.8,65,14.2,65,16.8z"/>
</g>
</svg>
