<?xml version="1.0" encoding="utf-8"?>
<!-- Generator: Adobe Illustrator 21.1.0, SVG Export Plug-In . SVG Version: 6.00 Build 0)  -->
<svg version="1.1" id="Layer_1" xmlns="http://www.w3.org/2000/svg" xmlns:xlink="http://www.w3.org/1999/xlink" x="0px" y="0px"
	 viewBox="0 0 28.6 36.3" style="enable-background:new 0 0 28.6 36.3;" xml:space="preserve">
<style type="text/css">
	.st0{fill:#1A1D1C;}
</style>
<path id="Icon_-_Grab" class="st0" d="M25.8,8.4c-0.6,0-1.2,0.2-1.7,0.6V5.2c0-1.6-1.2-2.8-2.8-2.9c0,0,0,0-0.1,0
	c-0.6,0-1.2,0.2-1.7,0.6c0-1.6-1.2-2.9-2.8-2.9c-1.6,0-2.9,1.2-2.9,2.8c0,0,0,0.1,0,0.1v0.7c-1.3-0.9-3.1-0.6-4,0.6
	C9.4,4.8,9.2,5.4,9.2,6v14.8l-2.4-2c-1.6-1.3-3.8-1.5-5.7-0.6c-0.5,0.3-0.9,0.8-1,1.3c-0.1,0.6,0.1,1.2,0.5,1.6
	c2.7,2.9,5.2,6.2,7.2,9.6c2.2,3.6,6.2,5.8,10.4,5.6c6.2,0,10.5-4.1,10.5-9.9v-15C28.6,9.7,27.4,8.4,25.8,8.4
	C25.8,8.4,25.8,8.4,25.8,8.4z M27.5,26.3c0,5.2-3.8,8.8-9.3,8.8c-3.8,0.2-7.5-1.8-9.4-5.1c-2.1-3.5-4.6-6.8-7.4-9.8
	c-0.2-0.1-0.2-0.4-0.2-0.6c0-0.2,0.2-0.4,0.4-0.5c1.5-0.7,3.2-0.5,4.5,0.5l3.4,2.7c0,0,0,0,0.1,0c0,0,0.1,0,0.1,0.1c0,0,0.1,0,0.1,0
	c0,0,0,0,0.1,0h0l0.1,0c0,0,0.1,0,0.1,0c0,0,0.1,0,0.1-0.1c0,0,0.1,0,0.1-0.1c0,0,0,0,0,0c0,0,0,0,0-0.1c0,0,0-0.1,0.1-0.1
	c0,0,0-0.1,0-0.1c0,0,0,0,0-0.1V6c0-0.9,0.7-1.7,1.7-1.8c0.9,0,1.7,0.7,1.8,1.7c0,0,0,0.1,0,0.1v11.4c0,0.3,0.3,0.6,0.6,0.6
	c0.3,0,0.6-0.3,0.6-0.6V2.9c0-0.9,0.7-1.7,1.6-1.7c0,0,0,0,0.1,0c0.9,0,1.7,0.8,1.7,1.7c0,0,0,0,0,0.1v14.4c0,0.3,0.3,0.6,0.6,0.5
	c0.3,0,0.5-0.3,0.5-0.5V5.2c0-0.9,0.8-1.7,1.7-1.7c0.9,0,1.7,0.8,1.7,1.7v13c0,0.3,0.3,0.6,0.6,0.5c0.3,0,0.5-0.3,0.5-0.5v-6.9
	c0-0.9,0.8-1.7,1.8-1.7c0.9,0,1.7,0.8,1.7,1.7L27.5,26.3L27.5,26.3z"/>
</svg>
