<?xml version="1.0" encoding="utf-8"?>
<!-- Generator: Adobe Illustrator 21.1.0, SVG Export Plug-In . SVG Version: 6.00 Build 0)  -->
<svg version="1.1" id="Layer_1" xmlns="http://www.w3.org/2000/svg" xmlns:xlink="http://www.w3.org/1999/xlink" x="0px" y="0px"
	 viewBox="0 0 20 36.1" style="enable-background:new 0 0 20 36.1;" xml:space="preserve">
<style type="text/css">
	.st0{fill:#1A1D1C;}
</style>
<path id="Icon_-_Mouse_Gesture" class="st0" d="M10,36.1c-5.5,0-10-4.4-10-9.9V10C0,4.5,4.5,0,10,0s10,4.5,10,10v16.2
	C20,31.7,15.5,36.1,10,36.1z M10,1.3c-4.8,0-8.8,3.8-8.8,8.7v16.2c0.1,4.9,4.1,8.8,9,8.7c4.7-0.1,8.6-3.9,8.7-8.7V10
	C18.8,5.2,14.8,1.3,10,1.3z M10,13.9c-0.7,0-1.2-0.5-1.2-1.2V7.3c0-0.6,0.5-1.2,1.1-1.2c0.6,0,1.2,0.5,1.2,1.1c0,0,0,0,0,0.1v5.4
	C11.2,13.4,10.7,13.9,10,13.9L10,13.9z"/>
</svg>
