<svg xmlns="http://www.w3.org/2000/svg" viewBox="0 0 60.6 60.6"><path d="M30.5 20H30v-3.3h.5V20zm-3.9 6.9h-.4l-.8-2.2v2.2H25v-3.3h.5l.7 1.9v-1.9h.5v3.3h-.1zm9-.5c0 .3-.2.5-.5.5h-1.2v-3.3h1.2c.3 0 .5.2.5.5v2.3zm-.5 0V24h-.7v2.4h.7zm-12.4 7.3h-1.4v-3.3h1.4v.5h-.9v.9h.7v.5h-.7v1h.9v.4zm8.6-1.4c.2.2.2.3.2.5v.5c0 .3-.2.5-.5.5h-.7c-.3 0-.5-.2-.5-.5v-.5h.5v.5h.7v-.5l-1-1c-.2-.2-.2-.3-.2-.5v-.4c0-.3.2-.5.5-.5h.7c.3 0 .5.2.5.5v.5H31v-.5h-.7v.4l1 1zm8 1.4h-.5v-3.3h.5v3.3zm-22 6.4c0 .3-.2.5-.5.5h-.7c-.3 0-.5-.2-.5-.5v-2.4c0-.3.2-.5.5-.5h.7c.3 0 .5.2.5.5v.5h-.5v-.5h-.7v2.4h.7v-.8h-.4v-.5h.8v1.3h.1zm8.9.5h-.4l-.8-2.2v2.2h-.5v-3.3h.5l.7 1.9v-1.9h.5v3.3zm10.2-3.3l-.6 3.3h-.6l-.4-2.2-.4 2.2H34l-.6-3.3h.5l.4 2.5.4-2.5h.4l.4 2.5.4-2.5h.5zm8.6 3.3h-1.4v-3.3H45v.5h-.9v.9h.7v.5h-.7v1h.9v.4zm-31.7 4h-.6v2.8h-.5v-2.8h-.6v-.5h1.7v.5zm8.9 2.8h-.5l-.3-1.3H21v1.3h-.5v-3.3h1.2c.3 0 .5.2.5.5v1c0 .3-.1.4-.4.4l.4 1.4zm-.5-1.7v-1H21v1h.7zm9.4 1.3c0 .3-.2.5-.5.5h-.7c-.3 0-.5-.2-.5-.5v-2.8h.5V47h.7v-2.8h.5V47zm8.7-1c.2.1.2.3.2.5v.5c0 .3-.2.5-.5.5h-.7c-.3 0-.5-.2-.5-.5v-.5h.5v.5h.7v-.5l-1-1c-.2-.2-.2-.3-.2-.5v-.4c0-.3.2-.5.5-.5h.7c.3 0 .5.2.5.5v.5h-.5v-.5h-.7v.4l1 1zm9.1-1.4h-.6v2.8h-.5v-2.8h-.6v-.5h1.7v.5z"/><path d="M60.6 52.3H0l30.3-44 30.3 44zm-58.7-1h56.8L30.3 10.1 1.9 51.3z"/></svg>