<svg version="1.1" id="Layer_1" xmlns="http://www.w3.org/2000/svg" x="0" y="0" viewBox="0 0 265.2 265.2" xml:space="preserve"><style>.st0{fill:#1a1d1c}</style><path class="st0" d="M132.6 0C59.5 0 0 59.5 0 132.6s59.5 132.6 132.6 132.6 132.6-59.5 132.6-132.6S205.7 0 132.6 0zm0 258.7c-69.5 0-126.1-56.6-126.1-126.1S63.1 6.5 132.6 6.5s126.1 56.6 126.1 126.1-56.6 126.1-126.1 126.1z"/><path class="st0" d="M45.3 172.7l-1.3-4-6.6 2.3 5.5-7.6-9-2.6 6.6-2.3-1.4-3.9-19.1 6.6 16 4.6-9.7 13.5zm-7.6-28l-2.4-.9-.6-7.3 2.2-1.3-.4-4.6-19.2 10.9 20.6 7.8-.2-4.6zm-7-6l.3 3.4-3.8-1.4 3.5-2zm7-17.7l-6.9-1.1.5-3 7.3-1.7.7-4.5-8.2 1.9c-.4-1-.9-1.8-1.7-2.5-.8-.7-1.9-1.2-3-1.4-1.6-.3-3.2.1-4.5 1.1-1.3 1-2.2 2.3-2.4 4l-1.3 8.3L37 125l.7-4zm-11.9-8c.5.1.9.3 1.2.7.3.4.4.9.3 1.4l-.6 4.2-3.7-.6.6-4.2c.1-.5.3-.9.7-1.2.5-.3 1-.4 1.5-.3zm16.8-12.7l-6.4-2.7-.5-1.3 9.6-2.6 2-4.9-13.2 3.6-4.5-10.6-2.2 5.4 3.4 8.2-5.8-2.3-1.6 3.8 17.7 7.2zm14.8-26.7L54 71.2l-4.9 7-2.7-1.9 4.2-6.1-3.5-2.3-4.2 6-2.6-1.8 4.5-6.5-3.4-2.4-6.9 10 15.7 10.9zm-1.9-19.8l10.2 10.9 3-2.9L58.6 51l4.9-4.6-2.9-3.1-12.8 12.1 2.8 3zm28.8-16c.8.5 1.7.8 2.7.7l6.3-.2c.6 0 1 .2 1.2.7.3.6.2 1.1-.2 1.6-.5.7-1.2 1.2-2 1.5-.8.3-1.6.5-2.5.5-.6 0-1-.3-1.3-.9l-.1-.3-3.2 3 .1.2c1.1 1.4 2.5 2.2 4.3 2.2h.5c1.3 0 2.6-.3 3.8-.8 1.3-.6 2.5-1.5 3.5-2.6.7-.8 1.1-1.8 1.3-2.8.2-1.1 0-2.1-.4-3.1s-1.1-1.8-2-2.4c-.9-.6-1.9-.8-2.9-.8l-6.3.2c-.4 0-.7-.1-.8-.4-.2-.4-.1-.7.1-1.1.4-.4.8-.8 1.3-1 .5-.2 1.1-.3 1.6-.3.3 0 .5.1.7.3l.2.2 3-2.9V29c-1-1-2.2-1.6-3.6-1.6-1.2 0-2.3.2-3.4.7-1.1.5-2 1.2-2.8 2.1-.6.8-1 1.6-1.2 2.6-.2 1 0 1.9.4 2.9.3.9.9 1.6 1.7 2.1zm23.8-12.5l3 14.6 4.1-.8-3-14.6 6.6-1.4-.9-4.1-17.2 3.6.8 4.1zm22.8 5.2h3.1l2.8 7 4.5.1-3.1-7.8c.9-.5 1.6-1.2 2.2-2.1.6-.9.9-2 .9-3.1 0-1.7-.6-3.1-1.7-4.3-1.2-1.2-2.6-1.8-4.3-1.8l-8.4-.1-.2 19.1h4.2v-7zm.1-7.9h4.2c.5 0 1 .2 1.3.6.4.4.5.8.5 1.3s-.2 1-.6 1.3-.8.5-1.3.5h-4.2l.1-3.7zm30.5 14.7l-8.4-1.9.8-3.3 7.2 1.7.9-4.1-7.2-1.6.7-3.1 7.8 1.8.9-4.1-11.8-2.7-4.3 18.5 12.4 2.9zm19.8 8.4l-7.7-3.6L175 39l6.7 3.2 1.8-3.8-6.7-3.1 1.4-2.9 7.2 3.4 1.8-3.8-11-5.2L168 44l11.5 5.5zm11.6 13.1L202 47l5.3 4.1 2.6-3.3L196 37.1l-2.6 3.3 5.3 4.1-9.1 11.7zm21 23.9l12.5-8.2 3.7 5.6 3.5-2.2-9.6-14.8-3.5 2.3 3.6 5.6-12.4 8.2zm7.8 15.4l6.6-2.3 1 2.9-5.6 5 1.5 4.3 6.3-5.6c.8.7 1.7 1.1 2.7 1.3 1.1.2 2.2.2 3.3-.2 1.6-.6 2.7-1.6 3.4-3.1s.8-3.1.2-4.6l-2.8-7.9-18 6.4 1.4 3.8zm15.4.4c-.2.5-.6.8-1.1 1-.5.2-1 .2-1.4-.1-.5-.2-.8-.6-1-1.1l-1.4-4 3.5-1.3 1.4 4c.2.6.2 1.1 0 1.5zm-8 17.5c-1.4 1.8-2 3.9-1.8 6.2.3 2.3 1.3 4.2 3.1 5.6 1.5 1.2 3.3 1.9 5.2 1.9.3 0 .7 0 1-.1l10.9-1.2-.5-4.2-10.9 1.2c-1.2.1-2.2-.2-3.1-.9-.9-.7-1.4-1.7-1.5-2.8-.1-1.1.2-2.2.9-3.1.7-.9 1.7-1.4 2.8-1.6l10.9-1.2-.5-4.2-10.9 1.2c-2.3.4-4.2 1.4-5.6 3.2zm15.4 24.6c-.8-.6-1.7-1-2.7-1.1-1-.1-1.9 0-2.8.5-.9.4-1.5 1.1-2 1.9l-3 5.5c-.3.5-.7.8-1.2.7-.6-.1-1-.4-1.2-1-.3-.8-.4-1.6-.3-2.5.1-.8.4-1.6.9-2.3.3-.5.8-.7 1.4-.6h.3l-.9-4.2h-.2c-1.8.2-3.1 1.1-4.1 2.5-.8 1.3-1.3 2.6-1.5 4.1-.2 1.5 0 2.9.5 4.3.4 1 .9 1.9 1.8 2.5.8.7 1.8 1.1 2.9 1.2h.7c.8 0 1.6-.2 2.3-.5.9-.5 1.7-1.2 2.2-2.1l3-5.5c.2-.3.4-.5.8-.5.4.1.7.3.8.7.2.5.2 1.1.2 1.7-.1.6-.3 1.1-.6 1.5-.2.2-.4.4-.6.4l-.2.1.9 4.1.2-.1c1.4-.3 2.5-1.1 3.2-2.3.6-1 1-2.1 1.2-3.3.1-1.2 0-2.4-.4-3.5-.3-.8-.8-1.6-1.6-2.2zm-7 26.7l-14.1-5-1.4 4 14.1 5-2.3 6.3 4 1.4 5.8-16.6-3.9-1.4zM60.3 194.6l-3.8-4.2-14.2 12.7 3.8 4.2c1.8 2 4 3 6.6 3.2h.6c2.4 0 4.5-.8 6.3-2.4 2-1.8 3-4 3.1-6.6.2-2.6-.6-4.9-2.4-6.9zm-4.1 1.7l1 1.1c1 1.1 1.4 2.4 1.4 3.9-.1 1.5-.7 2.7-1.8 3.7s-2.4 1.4-3.9 1.4c-1.5-.1-2.7-.7-3.7-1.8l-1-1.1 8-7.2zm4.2 25l10.3 7.4 2.5-3.3-7-5 2-2.8 6 4.3 2.4-3.3-6-4.4 1.9-2.5 6.5 4.6 2.4-3.4-9.9-7.1zm34-1.8c-1.1-.5-2.3-.7-3.5-.7-1 0-1.9.3-2.7.9-.8.5-1.4 1.3-1.8 2.2-.4.9-.5 1.9-.4 2.8.2.9.6 1.8 1.3 2.5l4.4 4.4c.4.4.5.9.3 1.4-.2.6-.7.9-1.3.9-.9 0-1.7-.1-2.4-.4-.8-.3-1.5-.8-2-1.5-.4-.5-.5-1-.2-1.6l.1-.3-4.3-.3v.2c-.3 1.7.1 3.3 1.3 4.7 1 1.2 2.2 2 3.5 2.6 1.2.5 2.5.8 3.8.8h.5c1.1 0 2.1-.4 2.9-1 .9-.6 1.6-1.4 2-2.4.4-1 .6-2.1.4-3.1s-.6-1.9-1.4-2.7l-4.4-4.5c-.3-.3-.3-.6-.2-.9.2-.4.5-.6.9-.6.6 0 1.1.1 1.6.3.5.2 1 .5 1.3 1 .2.2.3.5.2.7v.2l4.2.3v-.2c.1-1.4-.3-2.7-1.3-3.7-.8-.9-1.7-1.6-2.8-2z"/><path transform="rotate(-76.538 107.94 234.156)" class="st0" d="M98.4 232h19.1v4.4H98.4z"/><path class="st0" d="M129.4 240.5l3.1.1c-1.2 1.4-2.6 2-4.5 1.9-1.6-.1-2.9-.7-3.9-1.8-1.1-1.1-1.6-2.5-1.5-4.1.1-1.5.7-2.9 1.8-3.9 1.1-1.1 2.5-1.6 4.1-1.5 1.6.1 2.9.7 4 1.8l.2.2 3.1-2.8-.2-.2c-1.8-2-4.1-3-6.9-3.1-2.7-.1-5.1.8-7.1 2.6s-3.1 4.1-3.2 6.8c-.1 2.7.8 5.1 2.6 7.1s4.1 3 6.9 3.1h.4c2.5 0 4.8-.9 6.6-2.6 2-1.8 3.1-4.1 3.2-6.8v-.6l-8.6-.3-.1 4.1zm32.6-17.2l-4.1.9 2.4 10.6-15.8-8.5 4.3 19.5 4.1-.9-2.4-10.6 15.8 8.5zm37.4-4.9c-.3 1.5-1.1 2.8-2.4 3.7-1.3.9-2.7 1.2-4.2.9-1.5-.3-2.8-1.1-3.6-2.3-.9-1.3-1.2-2.7-.9-4.2.3-1.5 1.1-2.8 2.3-3.7 1.3-.9 2.7-1.2 4.2-.9h.2l.7-4.1h-.2c-2.7-.5-5.1.1-7.4 1.6-2.2 1.6-3.6 3.7-4.1 6.3-.5 2.7.1 5.1 1.6 7.3s3.7 3.6 6.3 4c.6.1 1.2.2 1.8.2 2 0 3.8-.6 5.5-1.8 2.2-1.6 3.6-3.7 4.1-6.3v-.2l-4.1-.7.2.2zm19.1-25.1c-2-1.8-4.4-2.6-7.1-2.4-2.7.2-5 1.3-6.7 3.4-1.8 2-2.6 4.5-2.4 7.2.2 2.7 1.3 5 3.4 6.7 1.8 1.6 4 2.4 6.3 2.4h.8c2.7-.2 5-1.3 6.7-3.4 1.8-2 2.6-4.5 2.4-7.2-.2-2.7-1.4-4.9-3.4-6.7zm-.8 7c.1 1.6-.4 2.9-1.4 4.1-1 1.2-2.3 1.8-3.9 1.9-1.6.1-2.9-.3-4.1-1.4-1.2-1-1.8-2.3-1.9-3.9-.1-1.6.4-2.9 1.4-4.1 1-1.2 2.3-1.8 3.9-1.9h.5c1.4 0 2.6.5 3.6 1.4 1.1 1.1 1.8 2.4 1.9 3.9zm-31.3-38V96.9c0-.5-.6-.8-1-.4L145 134.7c-.2.2-.6.2-.8 0l-6.7-6.5c-.9-.9-1.4-2-1.4-3.2V96.3c0-.3-.3-.6-.6-.6h-5.9c-.3 0-.6.3-.6.6v21c0 1-1.2 1.5-2 .8l-2.7-2.6c-2.1-2-3.5-4.1-4.4-6.2-1.3-3.2-1.4-5.9-1.4-8.2 0-7.5 6.1-13.3 13.9-13.3 8.5 0 15.4 6.3 15.4 14.1V118c0 .5.6.8 1 .4l5.9-5.7c.1-.1.2-.3.2-.4v-10.5c0-10.4-8-19-18.5-20.8-.3 0-.5-.3-.5-.6V56.9c0-.3.3-.6.6-.6 11.7.8 23.1 4.8 32.1 12 .2.2.6.2.8-.1l3.8-4.6c.2-.3.2-.6-.1-.8-22.6-18.3-58.9-18.3-81.5 0-.3.2-.3.6-.1.8l3.8 4.6c.2.2.6.3.8.1 9-7.3 20.4-11.3 32.1-12 .3 0 .6.3.6.6v23.6c0 .3-.2.5-.5.6-9.8 1.8-17 9.9-17 20 0 3.2.2 6.7 1.9 10.8 1.2 3.1 3.3 6 6 8.7l19.5 19c.2.2.2.6 0 .8l-6 5.7c-.2.2-.6.2-.8 0L79.7 96.4c-.4-.3-1-.1-1 .4v65.4c0 .3.3.6.6.6h5.9c.3 0 .6-.3.6-.6v-49c0-.5.6-.8 1-.4l39 36.8s1 .9 1.5 1.5c.5.5 1.7 1.6 1.7 3.8v14.9c0 .3.3.6.6.6h5.9c.3 0 .6-.3.6-.6v-14.9c0-2.2 1.2-3.3 1.7-3.8l1.5-1.5 3.8-3.6c.5-.5 1.4-.4 1.8.2 1.9 3 3 6.5 3 10v9c0 7.8-6.9 14.1-15.4 14.1s-15.4-6.3-15.4-14.1V155c0-.2-.1-.3-.2-.4l-5.9-5c-.4-.3-.9 0-.9.4v15.4c0 10.4 8 19 18.5 20.8.3 0 .5.3.5.6v28.7c0 .3.3.6.6.6h5.9c.3 0 .6-.3.6-.6v-28.7c0-.3.2-.5.5-.6 10.5-1.8 18.5-10.4 18.5-20.8v-9c0-5.7-1.9-11.1-5.4-15.7-.2-.2-.2-.5.1-.7 3-2.8 23.8-22.5 28.6-27 .4-.3 1-.1 1 .4v49c0 .3.3.6.6.6h5.9c.1-.1.4-.4.4-.7z"/><path class="st0" d="M106.4 192.2v-4.9c0-.2-.1-.3-.2-.4l-4.4-4.4c-.1-.1-.3-.2-.4-.2H89c-.3 0-.6.3-.6.6v13.6c0 .3.3.6.6.6h12.4c.2 0 .3-.1.4-.2l4.4-4.4c.1.1.2-.1.2-.3zm-5.4-1.9l-1.4 1.4c-.1.1-.3.2-.4.2h-4.9c-.3 0-.6-.3-.6-.6v-3c0-.3.3-.6.6-.6h4.9c.2 0 .3.1.4.2l1.4 1.4v1zm72.4.8c-.2-.2-.6-.2-.9 0l-.6.6c-.1.1-.3.2-.4.2h-6.8c-.2 0-.3-.1-.4-.2l-1.4-1.4v-.9l1.4-1.4c.1-.1.3-.2.4-.2h6.8c.2 0 .3.1.4.2l.6.6c.2.2.6.2.9 0l2.9-2.9c.2-.2.2-.6 0-.9l-2.1-2.1c-.1-.1-.3-.2-.4-.2h-11.2c-.2 0-.3.1-.4.2l-4.4 4.4c-.1.1-.2.3-.2.4v4.9c0 .2.1.3.2.4l4.4 4.4c.1.1.3.2.4.2h11.2c.2 0 .3-.1.4-.2l2.1-2.2c.2-.2.2-.6 0-.9l-2.9-3z"/></svg>