<?xml version="1.0" encoding="utf-8"?>
<!-- Generator: Adobe Illustrator 21.1.0, SVG Export Plug-In . SVG Version: 6.00 Build 0)  -->
<svg version="1.1" id="Layer_1" xmlns="http://www.w3.org/2000/svg" xmlns:xlink="http://www.w3.org/1999/xlink" x="0px" y="0px"
	 viewBox="0 0 265.2 265.2" style="enable-background:new 0 0 265.2 265.2;" xml:space="preserve">
<style type="text/css">
	.st0{fill:#1A1D1C;}
</style>
<g>
	<path class="st0" d="M132.6,0C59.5,0,0,59.5,0,132.6s59.5,132.6,132.6,132.6s132.6-59.5,132.6-132.6S205.7,0,132.6,0z M132.6,258.7
		c-69.5,0-126.1-56.6-126.1-126.1S63.1,6.5,132.6,6.5s126.1,56.6,126.1,126.1S202.1,258.7,132.6,258.7z"/>
	<polygon class="st0" points="45.3,172.7 44,168.7 37.4,171 42.9,163.4 33.9,160.8 40.5,158.5 39.1,154.6 20,161.2 36,165.8 
		26.3,179.3 	"/>
	<path class="st0" d="M37.7,144.7l-2.4-0.9l-0.6-7.3l2.2-1.3l-0.4-4.6l-19.2,10.9l20.6,7.8L37.7,144.7z M30.7,138.7l0.3,3.4
		l-3.8-1.4L30.7,138.7z"/>
	<path class="st0" d="M37.7,121l-6.9-1.1l0.5-3l7.3-1.7l0.7-4.5l-8.2,1.9c-0.4-1-0.9-1.8-1.7-2.5c-0.8-0.7-1.9-1.2-3-1.4
		c-1.6-0.3-3.2,0.1-4.5,1.1c-1.3,1-2.2,2.3-2.4,4l-1.3,8.3l18.8,2.9L37.7,121z M25.8,113L25.8,113c0.5,0.1,0.9,0.3,1.2,0.7
		c0.3,0.4,0.4,0.9,0.3,1.4l-0.6,4.2l-3.7-0.6l0.6-4.2c0.1-0.5,0.3-0.9,0.7-1.2C24.8,113,25.3,112.9,25.8,113z"/>
	<polygon class="st0" points="42.6,100.3 36.2,97.6 35.7,96.3 45.3,93.7 47.3,88.8 34.1,92.4 29.6,81.8 27.4,87.2 30.8,95.4 
		25,93.1 23.4,96.9 41.1,104.1 	"/>
	<polygon class="st0" points="57.4,73.6 54,71.2 49.1,78.2 46.4,76.3 50.6,70.2 47.1,67.9 42.9,73.9 40.3,72.1 44.8,65.6 41.4,63.2 
		34.5,73.2 50.2,84.1 	"/>
	<polygon class="st0" points="55.5,53.8 65.7,64.7 68.7,61.8 58.6,51 63.5,46.4 60.6,43.3 47.8,55.4 50.6,58.4 	"/>
	<path class="st0" d="M84.3,37.8c0.8,0.5,1.7,0.8,2.7,0.7l6.3-0.2c0.6,0,1,0.2,1.2,0.7c0.3,0.6,0.2,1.1-0.2,1.6
		c-0.5,0.7-1.2,1.2-2,1.5c-0.8,0.3-1.6,0.5-2.5,0.5c-0.6,0-1-0.3-1.3-0.9l-0.1-0.3l-3.2,3l0.1,0.2c1.1,1.4,2.5,2.2,4.3,2.2
		c0.2,0,0.3,0,0.5,0c1.3,0,2.6-0.3,3.8-0.8c1.3-0.6,2.5-1.5,3.5-2.6c0.7-0.8,1.1-1.8,1.3-2.8c0.2-1.1,0-2.1-0.4-3.1h0
		c-0.4-1-1.1-1.8-2-2.4c-0.9-0.6-1.9-0.8-2.9-0.8l-6.3,0.2c-0.4,0-0.7-0.1-0.8-0.4c-0.2-0.4-0.1-0.7,0.1-1.1c0.4-0.4,0.8-0.8,1.3-1
		c0.5-0.2,1.1-0.3,1.6-0.3c0.3,0,0.5,0.1,0.7,0.3l0.2,0.2l3-2.9L93.2,29c-1-1-2.2-1.6-3.6-1.6c-1.2,0-2.3,0.2-3.4,0.7
		c-1.1,0.5-2,1.2-2.8,2.1c-0.6,0.8-1,1.6-1.2,2.6c-0.2,1,0,1.9,0.4,2.9C82.9,36.6,83.5,37.3,84.3,37.8z"/>
	<polygon class="st0" points="108.1,25.3 111.1,39.9 115.2,39.1 112.2,24.5 118.8,23.1 117.9,19 100.7,22.6 101.5,26.7 	"/>
	<path class="st0" d="M130.9,30.5l3.1,0l2.8,7l4.5,0.1l-3.1-7.8c0.9-0.5,1.6-1.2,2.2-2.1c0.6-0.9,0.9-2,0.9-3.1
		c0-1.7-0.6-3.1-1.7-4.3c-1.2-1.2-2.6-1.8-4.3-1.8l-8.4-0.1l-0.2,19.1l4.2,0L130.9,30.5z M131,22.6l4.2,0c0.5,0,1,0.2,1.3,0.6
		c0.4,0.4,0.5,0.8,0.5,1.3c0,0.5-0.2,1-0.6,1.3s-0.8,0.5-1.3,0.5l-4.2,0L131,22.6z"/>
	<polygon class="st0" points="161.5,37.3 153.1,35.4 153.9,32.1 161.1,33.8 162,29.7 154.8,28.1 155.5,25 163.3,26.8 164.2,22.7 
		152.4,20 148.1,38.5 160.5,41.4 	"/>
	<polygon class="st0" points="181.3,45.7 173.6,42.1 175,39 181.7,42.2 183.5,38.4 176.8,35.3 178.2,32.4 185.4,35.8 187.2,32 
		176.2,26.8 168,44 179.5,49.5 	"/>
	<polygon class="st0" points="192.9,58.8 202,47 207.3,51.1 209.9,47.8 196,37.1 193.4,40.4 198.7,44.5 189.6,56.2 	"/>
	<polygon class="st0" points="213.9,82.7 226.4,74.5 230.1,80.1 233.6,77.9 224,63.1 220.5,65.4 224.1,71 211.7,79.2 	"/>
	<path class="st0" d="M221.7,98.1l6.6-2.3l1,2.9l-5.6,5l1.5,4.3l6.3-5.6c0.8,0.7,1.7,1.1,2.7,1.3c1.1,0.2,2.2,0.2,3.3-0.2
		c1.6-0.6,2.7-1.6,3.4-3.1s0.8-3.1,0.2-4.6l-2.8-7.9l-18,6.4L221.7,98.1z M237.1,98.5c-0.2,0.5-0.6,0.8-1.1,1h0
		c-0.5,0.2-1,0.2-1.4-0.1c-0.5-0.2-0.8-0.6-1-1.1l-1.4-4l3.5-1.3l1.4,4C237.3,97.6,237.3,98.1,237.1,98.5z"/>
	<path class="st0" d="M229.1,116c-1.4,1.8-2,3.9-1.8,6.2c0.3,2.3,1.3,4.2,3.1,5.6c1.5,1.2,3.3,1.9,5.2,1.9c0.3,0,0.7,0,1-0.1
		l10.9-1.2l-0.5-4.2l-10.9,1.2c-1.2,0.1-2.2-0.2-3.1-0.9c-0.9-0.7-1.4-1.7-1.5-2.8c-0.1-1.1,0.2-2.2,0.9-3.1
		c0.7-0.9,1.7-1.4,2.8-1.6l10.9-1.2l-0.5-4.2l-10.9,1.2C232.4,113.2,230.5,114.2,229.1,116z"/>
	<path class="st0" d="M244.5,140.6c-0.8-0.6-1.7-1-2.7-1.1c-1-0.1-1.9,0-2.8,0.5c-0.9,0.4-1.5,1.1-2,1.9l-3,5.5
		c-0.3,0.5-0.7,0.8-1.2,0.7c-0.6-0.1-1-0.4-1.2-1c-0.3-0.8-0.4-1.6-0.3-2.5c0.1-0.8,0.4-1.6,0.9-2.3c0.3-0.5,0.8-0.7,1.4-0.6l0.3,0
		l-0.9-4.2l-0.2,0c-1.8,0.2-3.1,1.1-4.1,2.5c-0.8,1.3-1.3,2.6-1.5,4.1c-0.2,1.5,0,2.9,0.5,4.3c0.4,1,0.9,1.9,1.8,2.5
		c0.8,0.7,1.8,1.1,2.9,1.2c0.2,0,0.5,0,0.7,0c0.8,0,1.6-0.2,2.3-0.5c0.9-0.5,1.7-1.2,2.2-2.1l3-5.5c0.2-0.3,0.4-0.5,0.8-0.5
		c0.4,0.1,0.7,0.3,0.8,0.7c0.2,0.5,0.2,1.1,0.2,1.7c-0.1,0.6-0.3,1.1-0.6,1.5c-0.2,0.2-0.4,0.4-0.6,0.4l-0.2,0.1l0.9,4.1l0.2-0.1
		c1.4-0.3,2.5-1.1,3.2-2.3c0.6-1,1-2.1,1.2-3.3c0.1-1.2,0-2.4-0.4-3.5C245.8,142,245.3,141.2,244.5,140.6z"/>
	<polygon class="st0" points="237.5,167.3 223.4,162.3 222,166.3 236.1,171.3 233.8,177.6 237.8,179 243.6,162.4 239.7,161 	"/>
	<path class="st0" d="M60.3,194.6l-3.8-4.2l-14.2,12.7l3.8,4.2c1.8,2,4,3,6.6,3.2c0.2,0,0.4,0,0.6,0c2.4,0,4.5-0.8,6.3-2.4
		c2-1.8,3-4,3.1-6.6C62.9,198.9,62.1,196.6,60.3,194.6z M56.2,196.3l1,1.1c1,1.1,1.4,2.4,1.4,3.9c-0.1,1.5-0.7,2.7-1.8,3.7
		c-1.1,1-2.4,1.4-3.9,1.4c-1.5-0.1-2.7-0.7-3.7-1.8l-1-1.1L56.2,196.3z"/>
	<polygon class="st0" points="60.4,221.3 70.7,228.7 73.2,225.4 66.2,220.4 68.2,217.6 74.2,221.9 76.6,218.6 70.6,214.2 
		72.5,211.7 79,216.3 81.4,212.9 71.5,205.8 	"/>
	<path class="st0" d="M94.4,219.5c-1.1-0.5-2.3-0.7-3.5-0.7c-1,0-1.9,0.3-2.7,0.9c-0.8,0.5-1.4,1.3-1.8,2.2
		c-0.4,0.9-0.5,1.9-0.4,2.8c0.2,0.9,0.6,1.8,1.3,2.5l4.4,4.4c0.4,0.4,0.5,0.9,0.3,1.4c-0.2,0.6-0.7,0.9-1.3,0.9
		c-0.9,0-1.7-0.1-2.4-0.4c-0.8-0.3-1.5-0.8-2-1.5c-0.4-0.5-0.5-1-0.2-1.6l0.1-0.3l-4.3-0.3l0,0.2c-0.3,1.7,0.1,3.3,1.3,4.7
		c1,1.2,2.2,2,3.5,2.6c1.2,0.5,2.5,0.8,3.8,0.8c0.2,0,0.3,0,0.5,0c1.1,0,2.1-0.4,2.9-1c0.9-0.6,1.6-1.4,2-2.4c0.4-1,0.6-2.1,0.4-3.1
		s-0.6-1.9-1.4-2.7l-4.4-4.5c-0.3-0.3-0.3-0.6-0.2-0.9c0.2-0.4,0.5-0.6,0.9-0.6c0.6,0,1.1,0.1,1.6,0.3c0.5,0.2,1,0.5,1.3,1
		c0.2,0.2,0.3,0.5,0.2,0.7l0,0.2l4.2,0.3l0-0.2c0.1-1.4-0.3-2.7-1.3-3.7C96.4,220.6,95.5,219.9,94.4,219.5z"/>
	
		<rect x="98.4" y="232" transform="matrix(0.2328 -0.9725 0.9725 0.2328 -144.9049 284.6174)" class="st0" width="19.1" height="4.4"/>
	<path class="st0" d="M129.4,240.5l3.1,0.1c-1.2,1.4-2.6,2-4.5,1.9c-1.6-0.1-2.9-0.7-3.9-1.8c-1.1-1.1-1.6-2.5-1.5-4.1
		c0.1-1.5,0.7-2.9,1.8-3.9c1.1-1.1,2.5-1.6,4.1-1.5c1.6,0.1,2.9,0.7,4,1.8l0.2,0.2l3.1-2.8l-0.2-0.2c-1.8-2-4.1-3-6.9-3.1
		c-2.7-0.1-5.1,0.8-7.1,2.6c-2,1.8-3.1,4.1-3.2,6.8c-0.1,2.7,0.8,5.1,2.6,7.1c1.8,2,4.1,3,6.9,3.1c0.1,0,0.3,0,0.4,0
		c2.5,0,4.8-0.9,6.6-2.6c2-1.8,3.1-4.1,3.2-6.8l0-0.6l-8.6-0.3L129.4,240.5z"/>
	<polygon class="st0" points="162,223.3 157.9,224.2 160.3,234.8 144.5,226.3 148.8,245.8 152.9,244.9 150.5,234.3 166.3,242.8 	"/>
	<path class="st0" d="M199.4,218.4c-0.3,1.5-1.1,2.8-2.4,3.7c-1.3,0.9-2.7,1.2-4.2,0.9c-1.5-0.3-2.8-1.1-3.6-2.3
		c-0.9-1.3-1.2-2.7-0.9-4.2c0.3-1.5,1.1-2.8,2.3-3.7c1.3-0.9,2.7-1.2,4.2-0.9l0.2,0l0.7-4.1l-0.2,0c-2.7-0.5-5.1,0.1-7.4,1.6
		c-2.2,1.6-3.6,3.7-4.1,6.3c-0.5,2.7,0.1,5.1,1.6,7.3c1.5,2.2,3.7,3.6,6.3,4c0.6,0.1,1.2,0.2,1.8,0.2c2,0,3.8-0.6,5.5-1.8
		c2.2-1.6,3.6-3.7,4.1-6.3l0-0.2l-4.1-0.7L199.4,218.4z"/>
	<path class="st0" d="M218.5,193.3c-2-1.8-4.4-2.6-7.1-2.4c-2.7,0.2-5,1.3-6.7,3.4c-1.8,2-2.6,4.5-2.4,7.2c0.2,2.7,1.3,5,3.4,6.7
		c1.8,1.6,4,2.4,6.3,2.4c0.3,0,0.5,0,0.8,0c2.7-0.2,5-1.3,6.7-3.4c1.8-2,2.6-4.5,2.4-7.2C221.7,197.3,220.5,195.1,218.5,193.3z
		 M217.7,200.3c0.1,1.6-0.4,2.9-1.4,4.1c-1,1.2-2.3,1.8-3.9,1.9c-1.6,0.1-2.9-0.3-4.1-1.4c-1.2-1-1.8-2.3-1.9-3.9
		c-0.1-1.6,0.4-2.9,1.4-4.1c1-1.2,2.3-1.8,3.9-1.9c0.2,0,0.3,0,0.5,0c1.4,0,2.6,0.5,3.6,1.4C216.9,197.5,217.6,198.8,217.7,200.3z"
		/>
	<path class="st0" d="M186.4,162.3V96.9c0-0.5-0.6-0.8-1-0.4L145,134.7c-0.2,0.2-0.6,0.2-0.8,0l-6.7-6.5c-0.9-0.9-1.4-2-1.4-3.2
		V96.3c0-0.3-0.3-0.6-0.6-0.6h-5.9c-0.3,0-0.6,0.3-0.6,0.6v21c0,1-1.2,1.5-2,0.8l-2.7-2.6c-2.1-2-3.5-4.1-4.4-6.2
		c-1.3-3.2-1.4-5.9-1.4-8.2c0-7.5,6.1-13.3,13.9-13.3c8.5,0,15.4,6.3,15.4,14.1V118c0,0.5,0.6,0.8,1,0.4l5.9-5.7
		c0.1-0.1,0.2-0.3,0.2-0.4v-10.5c0-10.4-8-19-18.5-20.8c-0.3,0-0.5-0.3-0.5-0.6V56.9c0-0.3,0.3-0.6,0.6-0.6
		c11.7,0.8,23.1,4.8,32.1,12c0.2,0.2,0.6,0.2,0.8-0.1l3.8-4.6c0.2-0.3,0.2-0.6-0.1-0.8c-22.6-18.3-58.9-18.3-81.5,0
		c-0.3,0.2-0.3,0.6-0.1,0.8l3.8,4.6c0.2,0.2,0.6,0.3,0.8,0.1c9-7.3,20.4-11.3,32.1-12c0.3,0,0.6,0.3,0.6,0.6v23.6
		c0,0.3-0.2,0.5-0.5,0.6c-9.8,1.8-17,9.9-17,20c0,3.2,0.2,6.7,1.9,10.8c1.2,3.1,3.3,6,6,8.7l19.5,19c0.2,0.2,0.2,0.6,0,0.8l-6,5.7
		c-0.2,0.2-0.6,0.2-0.8,0L79.7,96.4c-0.4-0.3-1-0.1-1,0.4v65.4c0,0.3,0.3,0.6,0.6,0.6h5.9c0.3,0,0.6-0.3,0.6-0.6v-49
		c0-0.5,0.6-0.8,1-0.4l39,36.8c0,0,0,0,0,0c0,0,1,0.9,1.5,1.5c0.5,0.5,1.7,1.6,1.7,3.8c0,0,0,0.1,0,0.1v14.8c0,0.3,0.3,0.6,0.6,0.6
		h5.9c0.3,0,0.6-0.3,0.6-0.6v-14.8c0,0,0-0.1,0-0.1c0-2.2,1.2-3.3,1.7-3.8c0.5-0.5,1.5-1.5,1.5-1.5c0,0,0,0,0,0l3.8-3.6
		c0.5-0.5,1.4-0.4,1.8,0.2c1.9,3,3,6.5,3,10v9c0,7.8-6.9,14.1-15.4,14.1c-8.5,0-15.4-6.3-15.4-14.1V155c0-0.2-0.1-0.3-0.2-0.4
		l-5.9-5c-0.4-0.3-0.9,0-0.9,0.4v15.4c0,10.4,8,19,18.5,20.8c0.3,0,0.5,0.3,0.5,0.6v28.7c0,0.3,0.3,0.6,0.6,0.6h5.9
		c0.3,0,0.6-0.3,0.6-0.6v-28.7c0-0.3,0.2-0.5,0.5-0.6c10.5-1.8,18.5-10.4,18.5-20.8v-9c0-5.7-1.9-11.1-5.4-15.7
		c-0.2-0.2-0.2-0.5,0.1-0.7c3-2.8,23.8-22.5,28.6-27c0.4-0.3,1-0.1,1,0.4v49c0,0.3,0.3,0.6,0.6,0.6h5.9
		C186.1,162.9,186.4,162.6,186.4,162.3z"/>
	<path class="st0" d="M106.4,192.2v-4.9c0-0.2-0.1-0.3-0.2-0.4l-4.4-4.4c-0.1-0.1-0.3-0.2-0.4-0.2H89c-0.3,0-0.6,0.3-0.6,0.6v13.6
		c0,0.3,0.3,0.6,0.6,0.6h12.4c0.2,0,0.3-0.1,0.4-0.2l4.4-4.4C106.3,192.6,106.4,192.4,106.4,192.2z M101,190.3l-1.4,1.4
		c-0.1,0.1-0.3,0.2-0.4,0.2h-4.9c-0.3,0-0.6-0.3-0.6-0.6v-3c0-0.3,0.3-0.6,0.6-0.6h4.9c0.2,0,0.3,0.1,0.4,0.2l1.4,1.4V190.3z"/>
	<path class="st0" d="M173.4,191.1c-0.2-0.2-0.6-0.2-0.9,0l-0.6,0.6c-0.1,0.1-0.3,0.2-0.4,0.2h-6.8c-0.2,0-0.3-0.1-0.4-0.2l-1.4-1.4
		v-0.9l1.4-1.4c0.1-0.1,0.3-0.2,0.4-0.2h6.8c0.2,0,0.3,0.1,0.4,0.2l0.6,0.6c0.2,0.2,0.6,0.2,0.9,0l2.9-2.9c0.2-0.2,0.2-0.6,0-0.9
		l-2.1-2.1c-0.1-0.1-0.3-0.2-0.4-0.2h-11.2c-0.2,0-0.3,0.1-0.4,0.2l-4.4,4.4c-0.1,0.1-0.2,0.3-0.2,0.4v4.9c0,0.2,0.1,0.3,0.2,0.4
		l4.4,4.4c0.1,0.1,0.3,0.2,0.4,0.2h11.2c0.2,0,0.3-0.1,0.4-0.2l2.1-2.2c0.2-0.2,0.2-0.6,0-0.9L173.4,191.1z"/>
</g>
</svg>
