<svg xmlns="http://www.w3.org/2000/svg" viewBox="0 0 44.5 44.5"><path d="M17.9.1v.2h-.3v.5h-.2V.3h-.3V.1h.8zm.6.7h-.2V.1h.5c.2 0 .3.1.3.2s-.1.2-.1.2l.2.2h-.3l-.2-.2h-.1v.3zm0-.4h.2c.1 0 .1 0 .1-.1 0 0 0-.1-.1-.1h-.2v.2zm1.5.3h-.4l-.1.1h-.2l.4-.7h.3l.4.7H20V.7zm-.2-.1h.2l-.1-.2-.1.2zM21 .1c.3 0 .5.1.5.4 0 .2-.2.4-.5.4h-.4V.1h.4zm-.1.5h.1c.1 0 .2-.1.2-.2s-.1-.2-.2-.2h-.1v.4zm1.7-.5v.2h-.5v.1h.4v.2h-.4v.1h.5v.2h-.7V.1h.7zm.7 0l.2.4.2-.4h.3v.7h-.2V.3l-.2.5h-.2l-.2-.5v.5H23V.1h.3zm1.7.6h-.4l-.1.1h-.2l.4-.7h.3l.4.7h-.3L25 .7zm-.2-.1h.2l-.1-.2-.1.2zm1.1.2h-.2V.1h.5c.2 0 .3.1.3.2s-.1.2-.2.2l.2.2h-.3L26 .6h-.1v.2zm0-.4h.2c.1 0 .1 0 .1-.1 0 0 0-.1-.1-.1h-.2v.2zm1.3.2l-.1.1v.1h-.2V.1h.2v.3l.3-.3h.3l-.3.3.3.4h-.3l-.2-.2zM13.7 43.7v.3h.3v-.3h.2v.7H14v-.3h-.3v.3h-.2v-.7h.2zm1.5 0c.2 0 .3.1.3.2s-.1.1-.2.2c.1 0 .2.1.2.2s-.1.2-.3.2h-.5v-.7h.5v-.1zm-.2.3h.2c.1 0 .1 0 .1-.1 0 0 0-.1-.1-.1H15v.2zm0 .3h.2c.1 0 .1 0 .1-.1 0 0 0-.1-.1-.1H15v.2zm1.2.2c-.2 0-.4-.1-.4-.4 0-.2.2-.4.5-.4.1 0 .3 0 .4.1l-.1.2c-.1 0-.2-.1-.3-.1-.1 0-.2.1-.2.2s.1.2.2.2.2 0 .2-.1h-.2v-.1h.4v.4h-.1v-.1c-.1 0-.2.1-.4.1zm13.1-.8v.4c0 .1.1.2.2.2s.2-.1.2-.2v-.4h.3v.4c0 .2-.1.4-.4.4s-.4-.1-.4-.4v-.4h.1zm1.8.1l-.1.2c-.1 0-.2-.1-.3-.1h-.1l.2.1c.3 0 .4.1.4.2 0 .2-.2.2-.4.2s-.3 0-.4-.1l.1-.2c.1.1.3.1.4.1h.2l-.2-.1c-.2 0-.4-.1-.4-.2s.2-.2.4-.2c-.1 0 .1.1.2.1zm.9.6h-.4l-.1.1h-.2l.4-.7h.3l.4.7h-.3l-.1-.1zm-.2-.2h.2l-.2-.2v.2zm-15.6-40c-1.6 0-2.9 1.3-2.9 2.8v2.5h-1.2s-.1 0-.1.1v1.9s0 .1.1.1h1.2v4c0 .8.2 1.6.7 2.3l2.3 3.7c.4.7.7 1.5.7 2.3v13.3c0 .4-.3.8-.7.8-.5 0-.8-.3-.8-.8V23.1s0-.1-.1-.1h-1.9s-.1 0-.1.1v14.1c0 1.5 1.2 2.8 2.7 2.9 1.6.1 2.9-1.2 2.9-2.8v-14c0-.8-.2-1.7-.7-2.4L16 17.4c-.4-.7-.7-1.5-.7-2.4V7c0-.4.3-.8.8-.8h.1c.4 0 .8.3.8.8v2.5h-.7s-.1 0-.1.1v1.9s0 .1.1.1h.7V15s0 .1.1.1H19s.1 0 .1-.1V7c-.1-1.5-1.3-2.8-2.9-2.8zm4 7.4h1.2v23s0 .1.1.1h1.9s.1 0 .1-.1v-23h1.3s.1 0 .1-.1V9.6s0-.1-.1-.1h-4.6s-.1 0-.1.1l.1 2zm12.2-4.2c0-1.8-1.5-3.2-3.3-3.2-1.7.1-3 1.5-3 3.2v29.5c0 1.7 1.3 3.2 3 3.2 1.8.1 3.3-1.4 3.3-3.2V23.1s0-.1-.1-.1h-1.9s-.1 0-.1.1V37c0 .6-.4 1.1-1 1.1-.7.1-1.3-.4-1.3-1.1V11.6h.7s.1 0 .1-.1V9.6s0-.1-.1-.1H28V7.4c0-.6.4-1.1 1-1.1.7-.1 1.3.4 1.3 1.1v7.7s0 .1.1.1h1.9s.1 0 .1-.1v-3.5h1.2s.1 0 .1-.1V9.6s0-.1-.1-.1h-1.2V7.4zM38.2 0C36.5 0 35 1.4 35 3.2v38.1c0 1.7 1.4 3.2 3.2 3.2 1.7 0 3.2-1.4 3.2-3.2V3.2C41.5 1.4 40 0 38.2 0zm1.1 41.3c0 .6-.5 1.1-1.1 1.1s-1.1-.5-1.1-1.1V3.2c0-.6.5-1.1 1.1-1.1s1.1.5 1.1 1.1v38.1zm-32.5-11L5.1.1 5 0H3.1C3 0 3 .1 3 .1v44.2c0 .1 0 .1.1.1h1.8c.1 0 .1 0 .1-.1V34c0-.1.1-.1.1 0l.8 10.4c0 .1.1.1.1.1h1.5c.1 0 .1 0 .1-.1l.8-11c0-.1.1-.1.1 0v10.9c0 .1 0 .1.1.1h1.8c.1 0 .1 0 .1-.1V.1s0-.1-.1-.1H8.6s-.1 0-.1.1L6.8 30.3zm12.8 14.2v-1.4h.5c.3 0 .5.1.5.4 0 .3-.2.4-.5.4h-.2v.6h-.3zm.2-.8h.2c.2 0 .3-.1.3-.2s-.1-.2-.3-.2h-.2v.4zm1.2.8v-1.4h.9v.2h-.7v.3h.5v.2h-.5v.4h.7v.2l-.9.1zm1.3 0v-1.4h.3l.5 1v-1h.3v1.4h-.3l-.6-1v1h-.2zm1.6 0v-1.4h.3l.5 1v-1h.3v1.4h-.3l-.6-1v1h-.2zm1.9-1.4h.3l.4 1.4h-.3l-.1-.3h-.4l-.1.3h-.3l.5-1.4zm0 .8h.3l-.1-.6-.2.6z"/></svg>