<svg xmlns="http://www.w3.org/2000/svg" viewBox="0 0 65 65"><path d="M45.4 12.9H19.7C8.8 12.9 0 21.7 0 32.5s8.8 19.6 19.6 19.6h25.7c10.8 0 19.6-8.8 19.6-19.6.1-10.8-8.7-19.6-19.5-19.6zm8.3 31.6c1.1-1.5 2.1-3.2 2.8-4.9h5.8c-.8 1.8-1.8 3.5-3 4.9h-5.6zm-47.9 0c-1.3-1.5-2.3-3.1-3-4.9h5.8c.7 1.8 1.6 3.5 2.8 4.9H5.8zm5.5-24c-1.1 1.5-2.1 3.2-2.8 4.9H2.7c.8-1.8 1.8-3.5 3-4.9 0 .1 5.6.1 5.6 0zm47.9 0c1.3 1.5 2.3 3.1 3 4.9h-5.8c-.7-1.8-1.6-3.5-2.8-4.9 0 .1 5.6.1 5.6 0zm-4.2 5h-6.2c-.6-1.8-1.4-3.4-2.4-4.9H52c1.2 1.4 2.3 3.1 3 4.9zm-6.6 6v.4h-6.3v-.4c0-1.5-.1-3-.3-4.5h6c.4 1.4.6 2.9.6 4.5zm-23.8-4.6H32v5h-7.7v-.4c-.1-1.6.1-3.1.3-4.6zm8.7-7.7v-4.9c1.9.4 3.6 2.2 4.9 4.9h-4.9zm5.5 1.3c.6 1.5 1.1 3.2 1.4 4.9h-6.9v-4.9h5.5zm-6.9 0v4.9h-7.2c.3-1.8.8-3.5 1.4-4.9 0 .1 5.8.1 5.8 0zm-5.1-1.3c1.4-2.8 3.2-4.6 5.2-4.9v4.9h-5.2zm5.1 14V38h-7.2c-.3-1.6-.4-3.3-.5-4.9h7.7zm1.4 0h7.5c0 1.7-.2 3.3-.5 4.9h-7v-4.9zm0-1.3v-5h7.2c.2 1.5.3 3 .3 4.5v.5h-7.5zm8.3-6.4c-.3-1.7-.8-3.4-1.3-4.9h4.6c1.1 1.5 2 3.1 2.6 4.9h-5.9zm-1.9-6.3c-.7-1.7-1.7-3.2-2.8-4.3 2.6.8 4.9 2.3 6.8 4.3h-4zm-14.3-.3c-.1.1-.1.2-.2.4h-4c1.9-2 4.2-3.5 6.8-4.3-.9.9-1.8 2.2-2.6 3.9zm-.7 1.6c-.6 1.5-1 3.2-1.3 4.9h-5.9c.6-1.8 1.5-3.5 2.6-4.9 0 .1 4.6.1 4.6 0zm-1.5 6.4c-.2 1.5-.3 3-.3 4.5v.5h-6.3v-.3c0-1.6.2-3.2.6-4.6h6v-.1zm-8 4.6v.4H8.6c.1-1.8.4-3.4.9-5h6.3c-.4 1.5-.6 3-.6 4.6zm0 1.7v.3c0 1.6.2 3.1.5 4.6H9.5c-.5-1.5-.8-3.2-.9-4.9h6.6zm1.4.3v-.3h6.3c0 1.6.2 3.3.5 4.9h-6.2c-.4-1.4-.6-3-.6-4.6zm7 6c.4 1.7.8 3.4 1.4 4.9h-4.9c-1.1-1.5-2-3.1-2.6-4.9h6.1zm1.4 0h7v4.9h-5.5c-.6-1.4-1.1-3.2-1.5-4.9zm6.9 6.3v4.9c-1.9-.3-3.6-2.2-4.9-4.9h4.9zm1.4 0H38c-1.3 2.6-2.9 4.5-4.7 4.9v-4.9zm0-1.3v-4.9H40c-.4 1.8-.9 3.5-1.5 4.9h-5.2zm8.1-5h6.1c-.6 1.8-1.5 3.5-2.6 4.9H40c.6-1.6 1-3.2 1.4-4.9zm.2-1.3c.3-1.6.4-3.3.5-4.9h6.3v.3c0 1.6-.2 3.2-.6 4.6h-6.2zm8.2-4.7v-.3h6.6c-.1 1.7-.4 3.4-.9 4.9h-6.3c.4-1.4.6-3 .6-4.6zm0-1.6v-.3c0-1.6-.2-3.1-.5-4.6h6.3c.5 1.6.8 3.2.9 4.9h-6.7zm-4.3-12.7c-1.8-2.2-4-3.9-6.5-5 4.5.2 8.6 2.1 11.7 5h-5.2zm-26 0h-5.2c3.1-2.9 7.2-4.8 11.7-5-2.5 1.2-4.7 2.8-6.5 5zm-1 1.3c-1 1.5-1.8 3.2-2.4 4.9H10c.8-1.8 1.8-3.5 3-4.9 0 .1 5.5.1 5.5 0zM8.1 26.9c-.5 1.6-.7 3.2-.8 4.9H1.4c.1-1.7.4-3.4.9-4.9h5.8zm-.8 6.3c.1 1.7.3 3.4.8 4.9H2.2c-.5-1.6-.8-3.2-.9-4.9h6zm2.7 6.3h6.2c.6 1.8 1.4 3.4 2.4 4.9H13c-1.2-1.4-2.3-3.2-3-4.9zm9.5 6.3c1.8 2.2 4 3.9 6.5 5-4.5-.2-8.6-2.1-11.7-5h5.2zm1.8 0h4.3c.8 1.8 1.8 3.3 2.9 4.4-2.8-.8-5.2-2.4-7.2-4.4zm18.1 0h4.3c-2 2.1-4.4 3.7-7.2 4.4 1.1-1.1 2.1-2.6 2.9-4.4zm6.1 0h5.2c-3.1 2.9-7.2 4.8-11.7 5 2.5-1.1 4.7-2.9 6.5-5zm1-1.3c1-1.5 1.8-3.2 2.4-4.9H55c-.8 1.8-1.8 3.5-3 4.9h-5.5zm10.4-6.3c.5-1.6.7-3.2.8-4.9h5.9c-.1 1.7-.4 3.4-.9 4.9h-5.8zm.9-6.3c-.1-1.7-.3-3.4-.8-4.9h5.8c.5 1.6.8 3.2.9 4.9h-5.9zM45.4 14.2c4.9 0 9.3 1.9 12.5 5h-5.3c-2-2.2-4.5-3.8-7.2-5zm-25.7 0c-2.8 1.1-5.3 2.8-7.3 5H7.1c3.3-3.1 7.7-5 12.6-5zm-.1 36.6c-4.9 0-9.3-1.9-12.5-5h5.3c2 2.1 4.5 3.9 7.2 5zm25.7 0c2.8-1.1 5.3-2.8 7.3-5h5.3c-3.2 3-7.7 5-12.6 5z"/></svg>