<svg xmlns="http://www.w3.org/2000/svg" viewBox="0 0 70.5 28.1"><path d="M23.2 6.4c.1-.1.3-.2.4-.2.1 0 .2 0 .2.1s-.1.3-.2.4c-.5.7-1.9 3-3.7 3.3-1.5.2-2.7 0-3.8-.4-.2-.1-.4 0-.5.1-2.6 3.8-1.3 10.3-3.8 14.6-1.5 2.6-4 3.8-6 3.9-2.4.1-3.2-1.1-3.2-1.7 0-.3.2-.5.5-.5s.4.2.4.4c0 .3.4 1.1 1.6 1.1 1.4 0 2.5-1.3 3.6-3.8 1.8-3.9 2.6-10.5 5.7-14 .2-.2.1-.6-.2-.7-1.2-.5-2.6-.9-4.4-.8-3.5.3-7.7 3.4-7.7 7.9 0 2 .8 3.7 2.9 3.7 1.5 0 2.6-1.2 2.6-2.4 0-.7-.6-.7-.6-1.4 0-.5.3-1 .9-1 .6 0 1 .4 1 1.2 0 2.1-1.9 4.1-4.2 4.1C2.3 20.5 0 18.7 0 16c0-5.2 5.2-8 10-8.3 4.6-.3 5.7.6 10.2 0 1.4-.2 2.1-.6 3-1.3z"/><path d="M18.6 20.4c-.6.9-1.5 4-1.5 4.4 0 .3-.1.4-.4.5-.3 0-.9 0-1.4.1-.6.1-1 .3-1.1.4-.1 0-.1 0-.1-.1s.3-.4.5-.8c.7-1.4 1.6-4.6 1.6-5.2 0-.1 0-.3-.2-.3-.3 0-1.1.9-1.1.9-.1-.1-.1-.2-.2-.2.4-.5 1.9-1.9 2.8-2 .8-.1 1.3.3 1.3.8 0 .4-.1.8-.1.9.6-1 1.7-2.1 2.4-2.2.7-.1 1.1.3 1.1.8 0 .6-.4 1.4-1.2 1.5-.5.1-.8-.3-.8-.7 0-.2-.1-.3-.2-.2-.4-.1-.7.2-1.4 1.4z"/><path d="M26.7 22.4c0-.6.1-1 .1-1-1.1 1.4-2.4 2.6-3.6 2.8-.9.1-1.7-.2-1.7-1.2 0-1.3 1.6-3.3 1.6-4.5 0-.2-.1-.3-.3-.3-.3 0-1.1.9-1.1.9-.1-.1-.1-.2-.2-.2.5-.5 1.9-2 2.9-2.1.8-.1 1.3.2 1.3.8 0 1.2-1.5 3.5-1.5 4.8 0 .3.2.4.4.4.4-.1 1-.5 2.1-2 .5-.7.7-2.2 1.1-3 .4-.9 1.2-1.5 2-1.8 1.2-.4 1.5-.8 1.5-.8.1.1.1.2.2.3 0 0-.7.5-1.2 1.5-.6 1.2-1.2 3.6-1.2 4.6 0 .2.1.3.2.3.6-.1 1.4-1.1 1.4-1.1l.2.2s-1.5 2.1-2.9 2.3c-.5.2-1.3-.1-1.3-.9z"/><path d="M30.7 21.1c0-.7.7-1.3 1.4-1.4.5-.1.9.2.9.7 0 .6-.5.8-.5 1.3 0 .3.3.6.8.5.9-.1 1.2-.8 1.2-1.5 0-1.5-2.5-1.3-2.5-2.9 0-1.4 2.1-2.4 3.5-2.7 1.3-.2 2.2.3 2.2 1.1 0 .7-.5 1.3-1.2 1.4-.6.1-1-.2-1-.6 0-.5.4-.7.4-1.1 0-.3-.2-.4-.5-.4-.6.1-1.1.6-1.1 1.2 0 1.7 2.7 1.6 2.7 3.1 0 1.4-1.8 2.6-3.6 2.9-1.5 0-2.7-.5-2.7-1.6zm8.6-7.9s.1 0 0 0c.3 0 .4-.2.4-.3.4-1.4 1.3-2 2.3-2.5 1.3-.5 1.6-.8 1.6-.8.1.1.1.2.2.3 0 0-.7.5-1.2 1.5l-.3.6c-.1.3.1.7.5.6.4-.1.9-.1 1.3-.2-.1.1-.1.2-.2.4-.1.1-.2.2-.3.2-.5.1-1 .2-1.5.2-.2 0-.3.1-.3.3-.5 2-1.2 4.3-1.2 5.3 0 .7.2 1 .7.9.8-.1 1.6-1.2 1.6-1.2l.2.2s-1.6 2.1-3.1 2.4c-1.1.2-2-.4-2-1.4 0-1.1.6-3 1.3-5.4.1-.3-.2-.6-.5-.6.1-.1.1-.2.2-.4.1 0 .2-.1.3-.1zm24.1 1.4c-1.3 2-4.2 5.6-7.9 6.1-3.2.4-5.9-.8-5.9-4.8 0-8.4 8-15.5 12.5-15.8 2-.2 3.2.7 3.2 2.5 0 1.4-.6 2.6-1.5 2.7-.5 0-.9-.3-.9-.8 0-1.2 1.4-1.3 1.4-2.5 0-.9-.7-1.3-1.9-1.2-3.7.3-9.1 7.1-9.1 14.6 0 3 1.3 4.2 3.5 3.9 2.7-.3 5.2-3.2 6.3-4.9.1 0 .2.1.3.2z"/><path d="M70.5 14c0 2.6-2.4 4.7-4.7 4.8-1.8.1-3.2-.7-3.2-2.4 0-2.5 2.1-4.9 4.6-4.9 2-.1 3.3.9 3.3 2.5zM65 16.9c0 .9.3 1.4.9 1.4 1.2 0 2.4-2.7 2.4-5.1 0-.9-.3-1.3-.9-1.3-1.3 0-2.4 2.4-2.4 5z"/></svg>