<svg xmlns="http://www.w3.org/2000/svg" viewBox="0 0 500 281"><path fill="#ecf0f1" d="M0 0h500v281H0z"/><path fill="#546a79" d="M0 0h500v36.5H0z"/><path d="M31 18.2c0 4.1-3.3 7.4-7.4 7.4-4.1 0-7.4-3.3-7.4-7.4 0-4.1 3.3-7.4 7.4-7.4 4.1 0 7.4 3.4 7.4 7.4zm0 0" fill="#ed7161"/><path d="M55.2 18.2c0 4.1-3.3 7.4-7.4 7.4-4.1 0-7.4-3.3-7.4-7.4 0-4.1 3.3-7.4 7.4-7.4 4.1 0 7.4 3.4 7.4 7.4zm0 0" fill="#f0c419"/><path d="M79.4 18.2c0 4.1-3.3 7.4-7.4 7.4-4.1 0-7.4-3.3-7.4-7.4 0-4.1 3.3-7.4 7.4-7.4 4.1 0 7.4 3.4 7.4 7.4zm0 0" fill="#4fba6f"/><path d="M43.1 60.7h413.8v79.8H43.1zm224.2 104h189.6v92H267.3zm-224.2 0h189.7v92H43.1z" fill="#bdc3c7"/></svg>