<svg version="1.1" id="Layer_1" xmlns="http://www.w3.org/2000/svg" x="0" y="0" viewBox="0 0 500 281" xml:space="preserve"><style>.st1{fill:none;stroke:#bdc3c7;stroke-width:3;stroke-miterlimit:10}</style><path fill="#ecf0f1" d="M0 0h500v281H0z"/><path class="st1" d="M1.5 1.6h497v277.9H1.5z"/><path class="st1" d="M31 18.2c0 4.1-3.3 7.4-7.4 7.4-4.1 0-7.4-3.3-7.4-7.4 0-4.1 3.3-7.4 7.4-7.4 4.1 0 7.4 3.4 7.4 7.4zm24.2 0c0 4.1-3.3 7.4-7.4 7.4-4.1 0-7.4-3.3-7.4-7.4 0-4.1 3.3-7.4 7.4-7.4 4.1 0 7.4 3.4 7.4 7.4zm24.2 0c0 4.1-3.3 7.4-7.4 7.4-4.1 0-7.4-3.3-7.4-7.4 0-4.1 3.3-7.4 7.4-7.4 4.1 0 7.4 3.4 7.4 7.4zM43.1 60.7h413.8v79.8H43.1zm224.2 104h189.6v92H267.3zm-224.2 0h189.7v92H43.1zm0-104l413.8 79.8m0-79.8L43.1 140.5m0 24.2l189.7 92.1m0-92.1L43.1 256.8m224.2-92.1l189.6 92.1m0-92.1l-189.6 92.1M498.5 36.5H1.5"/></svg>